*******************************************************************************
           A Haunting At Silver Falls (2013) WEBRip - RadioResearch
*******************************************************************************

-------------------------------------------------------------------------------
                              General Information
-------------------------------------------------------------------------------
Type.................: Movie



Video Format.........: AVI
Video Bitrate........: 1592
Resolution...........: 640 x 360
Color................: 8 bit
FPS..................: 29.970
Source...............: WEB 16:9
Original Format......: NTSC
Genre................: Horror / Thriller
IMDb Rating..........: Not Yet Rated
Movie Information....: http://www.imdb.com/title/tt1813609/

-------------------------------------------------------------------------------
                               Post Information
-------------------------------------------------------------------------------
Posted by............: RadioResearch
Posted on............: 5/28/2013

-------------------------------------------------------------------------------
                                 Release Notes
-------------------------------------------------------------------------------
SEEDBOX SUPPORTED!!

A small town is haunted by the twin daughters of a wrongfully convicted man. 
Young Jordan is sent down the path to who the real killer is only to find the 
killer is very close to her.

Don't forget to go to IMDB and vote on the film afterwards.  Don't leech and 
run!  Stick around and seed for awhile.

Enjoy!
RadioResearch

General
Complete name                            : G:A Haunting At Silver Falls (2013) 
WEBRip - RadioResearchA Haunting at Silver Falls-{RadioResearch}.avi
Format                                   : AVI
Format/Info                              : Audio Video Interleave
File size                                : 1.07 GiB
Duration                                 : 1h 36mn
Overall bit rate                         : 1 592 Kbps

Video
ID                                       : 0
Format                                   : MPEG-4 Visual
Format profile                           : Simple@L3
Format settings, BVOP                    : No
Format settings, QPel                    : No
Format settings, GMC                     : No warppoints
Format settings, Matrix                  : Default (H.263)
Codec ID                                 : XVID
Codec ID/Hint                            : XviD
Duration                                 : 1h 36mn
Bit rate                                 : 1 386 Kbps
Width                                    : 640 pixels
Height                                   : 360 pixels
Display aspect ratio                     : 16:9
Frame rate                               : 29.970 fps
Original frame rate                      : 29.000 fps
Color space                              : YUV
Chroma subsampling                       : 4:2:0
Bit depth                                : 8 bits
Scan type                                : Progressive
Compression mode                         : Lossy
Bits/(Pixel*Frame)                       : 0.201
Stream size                              : 952 MiB (87%)
Writing library                          : XviD 1.2.1 (UTC 2008-12-04)

Audio
ID                                       : 1
Format                                   : MPEG Audio
Format version                           : Version 1
Format profile                           : Layer 3
Mode                                     : Joint stereo
Mode extension                           : MS Stereo
Codec ID                                 : 55
Codec ID/Hint                            : MP3
Duration                                 : 1h 36mn
Bit rate mode                            : Constant
Bit rate                                 : 192 Kbps
Channel(s)                               : 2 channels
Sampling rate                            : 48.0 KHz
Compression mode                         : Lossy
Stream size                              : 132 MiB (12%)
Alignment                                : Aligned on interleaves
Interleave, duration                     : 24 ms (0.72 video frame)
Writing library                          : LAME3.98.2

AVI FILE MD5 HASH  4ce3aba24164e382610a5dda1b5fbe0f



-------------------------------------------------------------------------------
Generated with Cool NFO Creator - http://fly.to/coolbeans
-------------------------------------------------------------------------------
